<svg id="Capa_1" data-name="Capa 1" xmlns="http://www.w3.org/2000/svg" viewBox="0 0 1920 1920"><defs><style>.cls-1{fill:#efb807;}.cls-2{fill:#fff;}</style></defs><polygon class="cls-1" points="115.47 496.91 935.34 923.36 935.34 1890.2 115.47 1411.81 115.47 496.91"/><polygon class="cls-1" points="988.49 923.36 1808.36 496.91 1808.36 1408.59 988.49 1890.2 988.49 923.36"/><polygon class="cls-1" points="147.69 450.2 964.33 29.8 1771.32 450.2 959.5 872.22 147.69 450.2"/><path class="cls-2" d="M703.6,480.18l60.09-42.41a8.19,8.19,0,0,0,.16-13.26c-19.06-14.32-54.84-51.5,5.77-97.89,2.57-2,5-4,7.54-6.08C792,308.39,850,267.75,924.06,304.43c0,0,38.66,17.72,27.39,62.82,0,0-38.66,101.47,20.13,139.33L1028,544.64a23.63,23.63,0,0,0,25.88.35l66.79-42.45a4.73,4.73,0,0,0,0-8l-47.61-29.84s-36.34-21.08-25.48-75a94.57,94.57,0,0,1,3.87-13.27c7.59-21,33-110.49-65.37-150.14,0,0-113.58-46.68-218.4,13.65-3.34,1.91-6.7,3.78-10.15,5.48C736.1,256,647.27,303.26,628.65,372.9a88,88,0,0,0,3.47,55.17,108.8,108.8,0,0,0,44.22,53A24.78,24.78,0,0,0,703.6,480.18Z"/><ellipse class="cls-2" cx="1187.52" cy="584.33" rx="74.47" ry="48.8" transform="translate(-62.63 149.87) rotate(-7.04)"/><path class="cls-2" d="M1201,1107.76c.64-32.91,11.35-137.24,116.48-211.85,2-1.46,4.12-2.93,6.13-4.46,15.88-12.13,115.57-84.28,211.15-60.3,16.2,4.06,31,12.48,42.14,25,21.44,24.14,44.67,73.86,5.1,162.17a180.32,180.32,0,0,1-11.9,22.07c-10.46,16.69-32.07,50-51.23,72-2.68,3.09-5.51,6-8.46,8.83-15,14.53-77.65,78.58-76.24,137.63l1.85,47.58a12.29,12.29,0,0,1-6.53,11.34l-80.65,42.78a7.49,7.49,0,0,1-11-5.88c-2.68-27.66-6.38-101.51,22.77-153.8,0,0,30.65-56,50.79-74.48,3.61-3.3,7.21-6.57,10.59-10.12,22.91-24.08,91.75-102.77,70.16-158.09,0,0-10.74-60.13-100.94-20.4,0,0-78,22.06-91.52,131.36a13.56,13.56,0,0,1-8.19,10.81l-81,34.28A6.82,6.82,0,0,1,1201,1107.76Z"/><ellipse class="cls-2" cx="1388.02" cy="1466.97" rx="74.56" ry="50.37" transform="translate(-627.95 1587.27) rotate(-50)"/><path class="cls-2" d="M403.25,990l-75.57-33.17a15.24,15.24,0,0,1-9.13-14.62c1.61-34.55,16.57-140.53,141.08-113.47,0,0,237.32,41.08,264.7,248.06,0,0,9,73.58-39.77,116.08a101.38,101.38,0,0,1-35.14,19.44l-17.36,5.7c-4.25,1.4-8.55,2.6-12.89,3.7-14.29,3.61-56.32,18.29-63.43,67.16l.88,56.2a7.83,7.83,0,0,1-11.15,7.22L465.68,1315a13.05,13.05,0,0,1-7.52-12l1.32-80.12c.28-16.88,5.22-33.5,15-47.23,11-15.34,30-30.88,63-37.09,0,0,106.84-24.16,81.07-100.4,0,0-20.4-92.35-135.3-113.56,0,0-55.73-16.72-66.82,58A9.5,9.5,0,0,1,403.25,990Z"/><ellipse class="cls-2" cx="512.73" cy="1465.69" rx="48.15" ry="78.71" transform="translate(-771.95 593.48) rotate(-36.55)"/></svg>