<?xml version="1.0" encoding="utf-8"?>
<!-- Generator: Adobe Illustrator 26.0.0, SVG Export Plug-In . SVG Version: 6.00 Build 0)  -->
<svg version="1.1" id="Capa_1" xmlns="http://www.w3.org/2000/svg" xmlns:xlink="http://www.w3.org/1999/xlink" x="0px" y="0px"
	 viewBox="0 0 3134.8 1533.8" style="enable-background:new 0 0 3134.8 1533.8;" xml:space="preserve">
<style type="text/css">
	.st0{opacity:0.32;}
	.st1{opacity:0.18;}
	.st2{fill:#828282;}
	.st3{opacity:0.18;fill:#828282;enable-background:new    ;}
</style>
<g id="Capa_2_00000003790556892464090770000000882461607460172964_" class="st0">
	<g id="ColeccionLogos">
		<g id="Logo2">
			<g class="st1">
				<path class="st2" d="M1429.4,1474.2l-58.6-71.8v71.8h-32.3v-161h32.3v72.2l58.6-72.2h39l-66.5,79.8l68.3,81.2L1429.4,1474.2z"/>
				<path class="st2" d="M1523.7,1339.2v40.4h54.2v25.6h-54.2v42.7h61.1v26.3h-93.4v-161.3h93.4v26.3L1523.7,1339.2z"/>
				<path class="st2" d="M1646.5,1448.6h53.1v25.6h-85.4v-161h32.3V1448.6z"/>
				<path class="st2" d="M1752.4,1339.2v40.4h54.2v25.6h-54.2v42.7h61.1v26.3h-93.4v-161.3h93.4v26.3L1752.4,1339.2z"/>
				<path class="st2" d="M1987.4,1313.2l-59.1,161h-39.2l-59.1-161h34.6l44.3,128l44.1-128H1987.4z"/>
				<path class="st2" d="M2040.1,1465.2c-12.5-6.9-22.8-17.1-30-29.4c-7.4-12.5-11.1-26.7-11.1-42.6c0-15.7,3.7-29.8,11.1-42.3
					c7.2-12.3,17.5-22.5,30-29.4c25.9-14.1,57.3-14.1,83.2,0c12.4,6.9,22.7,17.1,29.8,29.4c7.3,12.5,11,26.7,11,42.3
					c0,15.8-3.7,30-11,42.6c-7.1,12.3-17.4,22.5-29.9,29.4C2097.3,1479.3,2066,1479.3,2040.1,1465.2L2040.1,1465.2z M2107.2,1440.4
					c7.5-4.5,13.5-11,17.3-18.8c4.2-8.2,6.2-17.6,6.2-28.4s-2.1-20.2-6.2-28.3c-3.8-7.7-9.9-14.2-17.3-18.6
					c-7.4-4.3-15.9-6.5-25.6-6.5c-9-0.2-17.9,2.1-25.7,6.5c-7.5,4.4-13.6,10.8-17.4,18.6c-4.2,8.1-6.2,17.5-6.2,28.3
					c0,10.8,2.1,20.2,6.2,28.4c3.9,7.8,9.9,14.4,17.4,18.8c7.8,4.5,16.7,6.7,25.7,6.6C2091.3,1447,2099.8,1444.8,2107.2,1440.4
					L2107.2,1440.4z"/>
			</g>
			<g class="st1">
				<path class="st2" d="M2295.8,1323.3v66.3h63.4v8.6h-63.4v66.8h70.2v8.6h-80.3v-158.9h80.3v8.6H2295.8z"/>
				<path class="st2" d="M2415.7,1469.7c-7.2-3.2-13.4-8.3-18-14.7c-4.3-6.1-6.8-13.2-7.4-20.6h10.6c1.2,8.3,5.1,15.7,11.6,22.2
					s16.6,9.7,30,9.7c7.1,0.2,14.1-1.3,20.5-4.3c5.5-2.6,10.2-6.7,13.5-11.8c3.1-4.9,4.8-10.7,4.8-16.5c0-7.7-1.8-13.8-5.5-18.3
					c-3.7-4.5-8.4-8-13.8-10.2c-7.3-2.8-14.7-5.3-22.3-7.2c-8.4-2.1-16.7-4.8-24.8-8.2c-6.3-2.7-11.7-7.1-15.8-12.6
					c-4.3-5.7-6.4-13.4-6.4-23.2c-0.1-7.3,2-14.5,6-20.7c4.2-6.4,10.1-11.6,17.1-14.8c7.4-3.6,15.9-5.4,25.6-5.4
					c14,0,25.3,3.5,33.9,10.4s13.8,15.5,15.4,25.6h-10.9c-1.1-4.5-3.2-8.8-6-12.4c-3.5-4.5-8-8.1-13.1-10.5
					c-5.7-2.8-12.4-4.2-20.2-4.2c-10.6,0-19.5,2.9-26.7,8.7s-10.9,13.5-10.9,23.2c0,7.7,1.9,13.8,5.6,18.4
					c3.7,4.6,8.5,8.1,13.9,10.4c7.2,2.9,14.7,5.3,22.3,7.1c8.4,2.2,16.7,5,24.8,8.3c6.2,2.7,11.6,7,15.6,12.4
					c4.3,5.7,6.4,13.3,6.4,23c0,7.1-2,14.1-5.7,20.1c-4,6.6-9.8,11.9-16.6,15.5c-7.3,4-16.2,6-26.6,6
					C2432.4,1475.2,2423.4,1473.3,2415.7,1469.7z"/>
				<path class="st2" d="M2609.9,1314.7v8.6h-45.2v150.2h-10.2v-150.2h-45.3v-8.6H2609.9z"/>
				<path class="st2" d="M2643.4,1314.7v99.3c0,18,4.1,31.1,12.2,39.5c8.1,8.4,19.2,12.6,33.3,12.6c13.9,0,24.8-4.1,32.8-12.4
					c8-8.3,12-21.5,12-39.6v-99.3h10.2v99.1c0,20.7-5,36.1-14.9,46.2c-10,10.1-23.3,15.2-40.1,15.2c-16.7,0-30.2-5.1-40.4-15.3
					c-10.2-10.2-15.3-25.5-15.3-46v-99.1L2643.4,1314.7z"/>
				<path class="st2" d="M2886.7,1335.8c14.5,14,21.8,33.5,21.8,58.6s-7.3,44.5-21.8,58.4c-14.6,13.9-35.3,20.8-62.1,20.8H2780
					v-158.8h44.6C2851.4,1314.7,2872.1,1321.8,2886.7,1335.8z M2879.3,1446.3c12.5-12.4,18.8-29.7,18.8-51.9
					c0-22.3-6.3-39.7-18.8-52.3c-12.5-12.5-30.8-18.8-54.8-18.8h-34.4V1465h34.4C2848.6,1465,2866.8,1458.8,2879.3,1446.3
					L2879.3,1446.3z"/>
				<path class="st2" d="M2949.5,1314.7v158.8h-10.2v-158.8H2949.5z"/>
				<path class="st2" d="M3018,1465.1c-11.7-6.8-21.3-16.8-27.6-28.8c-6.7-12.4-10-26.3-10-41.8c0-15.7,3.3-29.7,10-42
					c6.3-12,15.9-21.9,27.6-28.7c11.8-6.9,25-10.3,39.6-10.3s27.8,3.4,39.6,10.3c11.7,6.8,21.3,16.8,27.6,28.7
					c6.7,12.3,10,26.3,10,42c0,15.5-3.3,29.5-10,41.8c-6.3,12-15.9,22-27.6,28.8c-11.8,6.9-25,10.3-39.6,10.3
					C3043,1475.4,3029.8,1471.9,3018,1465.1z M3091.5,1457.5c10.2-5.9,18.4-14.7,23.9-25.1c5.8-10.9,8.7-23.5,8.7-38
					c0-14.6-2.9-27.4-8.7-38.2c-5.4-10.5-13.7-19.2-23.9-25.1c-21.1-11.8-46.8-11.8-67.9,0c-10.2,6-18.5,14.7-24,25.1
					c-5.9,10.9-8.8,23.6-8.8,38.2c0,14.5,2.9,27.1,8.8,38c5.5,10.5,13.8,19.2,24,25.1C3044.8,1469.3,3070.4,1469.3,3091.5,1457.5z"
					/>
			</g>
			<path class="st3" d="M2220.6,1533.8c-1.4,0-2.5-1.1-2.5-2.5c0,0,0,0,0,0v-273.2c0-1.4,1.1-2.5,2.5-2.5s2.5,1.1,2.5,2.5v273.2
				C2223.1,1532.7,2222,1533.8,2220.6,1533.8z"/>
		</g>
		<g id="Logo1">
			<g id="Icono2_copia">
				<path class="st3" d="M538.5,0L409.9,74.2L281.3,0L0,162.4v324.9l281.3,162.4l128.6-74.2l128.6,74.2l281.3-162.4V162.4L538.5,0z
					 M281.3,603.5L40,464.2V185.5L281.3,46.2l88.6,51.1l-112.7,65.1v324.9l112.7,65.1L281.3,603.5z M409.9,120.4l112.7,65.1v278.7
					l-112.7,65.1l-112.7-65.1V185.5L409.9,120.4z M779.9,464.2L538.5,603.5l-88.6-51.2l112.7-65.1V162.4L449.9,97.3l88.6-51.2
					l241.3,139.3V464.2z"/>
			</g>
			<g class="st1">
				<path class="st2" d="M955.8,326l-58.6-71.8V326h-32.3V165h32.3v72.2l58.6-72.2h39l-66.5,79.8l68.3,81.2H955.8z"/>
				<path class="st2" d="M1050.1,191.1v40.4h54.2V257h-54.2v42.7h61.1V326h-93.4V164.8h93.4v26.3H1050.1z"/>
				<path class="st2" d="M1172.8,300.4h53.1V326h-85.4V165h32.3L1172.8,300.4z"/>
				<path class="st2" d="M1278.7,191.1v40.4h54.3V257h-54.2v42.7h61.1V326h-93.4V164.8h93.4v26.3H1278.7z"/>
				<path class="st2" d="M1513.8,165l-59.1,161h-39.2l-59.1-161h34.6l44.3,128l44.1-128H1513.8z"/>
				<path class="st2" d="M1566.4,317c-12.5-6.9-22.8-17.1-30-29.4c-7.4-12.5-11.1-26.7-11.1-42.6c0-15.7,3.7-29.8,11.1-42.3
					c7.2-12.3,17.5-22.5,30-29.4c25.9-14.1,57.3-14.1,83.2,0c12.4,6.9,22.7,17.1,29.8,29.4c7.3,12.5,11,26.6,11,42.3
					c0,15.8-3.7,30-11,42.6c-7.1,12.3-17.4,22.5-29.9,29.4C1623.6,331.1,1592.3,331.1,1566.4,317L1566.4,317z M1633.6,292.2
					c7.5-4.5,13.5-11,17.3-18.8c4.2-8.2,6.2-17.6,6.2-28.4c0-10.8-2.1-20.2-6.2-28.3c-3.8-7.7-9.9-14.2-17.3-18.6
					c-7.4-4.3-15.9-6.5-25.6-6.5c-9.7,0-18.3,2.2-25.7,6.5c-7.5,4.4-13.6,10.8-17.4,18.6c-4.1,8.1-6.2,17.5-6.2,28.3
					c0,10.8,2.1,20.2,6.2,28.4c3.9,7.8,9.9,14.4,17.4,18.8c7.8,4.5,16.7,6.8,25.8,6.6C1617.7,298.8,1626.2,296.6,1633.6,292.2
					L1633.6,292.2z"/>
			</g>
			<g class="st1">
				<path class="st2" d="M866.7,384.9v45.5h43.5v5.9h-43.5v45.8h48.1v5.9h-55.1V379h55.1v5.9L866.7,384.9z"/>
				<path class="st2" d="M949,485.4c-4.9-2.2-9.2-5.7-12.3-10.1c-2.9-4.2-4.6-9.1-5-14.1h7.3c0.9,5.8,3.7,11.2,8,15.2
					c4.5,4.5,11.4,6.7,20.6,6.7c4.9,0.1,9.7-0.9,14.1-3c3.8-1.8,7-4.6,9.2-8.1c2.1-3.4,3.2-7.3,3.2-11.3c0-5.3-1.3-9.5-3.8-12.6
					c-2.5-3.1-5.8-5.5-9.5-7c-5-2-10.1-3.6-15.3-5c-5.8-1.4-11.5-3.3-17-5.6c-4.3-1.9-8-4.8-10.8-8.6c-3-3.9-4.4-9.2-4.4-15.9
					c0-5,1.4-10,4.1-14.2c2.9-4.4,6.9-8,11.7-10.2c5.5-2.6,11.5-3.8,17.5-3.7c9.6,0,17.4,2.4,23.3,7.1c5.6,4.3,9.4,10.6,10.6,17.5
					H993c-0.8-3.1-2.2-6-4.1-8.5c-2.4-3.1-5.5-5.6-9-7.2c-4.4-2-9.1-3-13.9-2.9c-7.2,0-13.4,2-18.3,6c-4.9,3.8-7.7,9.7-7.5,15.9
					c0,5.3,1.3,9.5,3.9,12.7c2.5,3.1,5.8,5.6,9.5,7.1c5,2,10.1,3.6,15.3,4.9c5.8,1.5,11.5,3.4,17,5.7c4.3,1.9,7.9,4.8,10.7,8.5
					c2.9,3.9,4.4,9.1,4.4,15.8c0,4.9-1.4,9.7-3.9,13.8c-2.8,4.5-6.8,8.1-11.5,10.5c-5,2.7-11.1,4.1-18.2,4.1
					C961.1,489.3,954.8,488,949,485.4z"/>
				<path class="st2" d="M1082.2,379v5.9h-31.1V488h-7V384.9h-31V379H1082.2z"/>
				<path class="st2" d="M1105.2,379v68.2c0,12.3,2.8,21.4,8.4,27.1s13.2,8.6,22.8,8.6c9.5,0,17-2.8,22.5-8.5s8.2-14.8,8.2-27.2V379
					h7v68c0,14.2-3.4,24.8-10.2,31.7s-16,10.4-27.5,10.4c-11.5,0-20.7-3.5-27.7-10.5s-10.5-17.5-10.5-31.6v-68H1105.2z"/>
				<path class="st2" d="M1272.2,393.5c10,9.6,15,23,15,40.2s-5,30.5-15,40.1c-10,9.5-24.2,14.3-42.6,14.3H1199V379h30.6
					C1248,379,1262.2,383.8,1272.2,393.5z M1267.2,469.3c8.6-8.5,12.9-20.4,12.9-35.6c0-15.3-4.3-27.3-12.9-35.9
					c-8.6-8.6-21.1-12.9-37.6-12.9H1206v97.2h23.6C1246.1,482.1,1258.6,477.9,1267.2,469.3L1267.2,469.3z"/>
				<path class="st2" d="M1315.3,379v109h-7V379H1315.3z"/>
				<path class="st2" d="M1362.4,482.2c-8-4.7-14.6-11.5-18.9-19.8c-4.6-8.9-7-18.7-6.8-28.7c0-10.8,2.3-20.4,6.8-28.8
					c4.3-8.2,10.9-15,18.9-19.7c16.9-9.4,37.5-9.4,54.3,0c8.1,4.7,14.6,11.5,19,19.7c4.6,8.4,6.8,18,6.8,28.8
					c0.2,10-2.2,19.9-6.8,28.7c-4.3,8.3-10.9,15.1-19,19.8C1399.8,491.6,1379.3,491.6,1362.4,482.2z M1412.8,477
					c7-4.1,12.7-10.1,16.4-17.2c4-7.5,6-16.2,6-26.1c0-10-2-18.8-6-26.2c-3.7-7.2-9.4-13.2-16.4-17.2c-14.5-8.1-32.1-8.1-46.6,0
					c-7,4.1-12.7,10.1-16.5,17.2c-4,7.5-6.1,16.2-6.1,26.2c0,9.9,2,18.6,6.1,26.1c3.8,7.2,9.5,13.1,16.5,17.2
					C1380.7,485.1,1398.4,485.1,1412.8,477L1412.8,477z"/>
			</g>
		</g>
	</g>
</g>
</svg>
