<?xml version="1.0" encoding="utf-8"?>
<!-- Generator: Adobe Illustrator 26.0.0, SVG Export Plug-In . SVG Version: 6.00 Build 0)  -->
<svg version="1.1" id="RIOT_Games_Logo" xmlns="http://www.w3.org/2000/svg" xmlns:xlink="http://www.w3.org/1999/xlink" x="0px"
	 y="0px" viewBox="0 0 1000 520" style="enable-background:new 0 0 1000 520;" xml:space="preserve">
<style type="text/css">
	.st0{fill:#FFFFFF;}
	.st1{fill:#EE3124;}
</style>
<path class="st0" d="M799.1,147.5c-16.9-18.7-40.9-35.4-71.4-49.7c-61-28.5-141.9-44.2-227.6-44.2S333.5,69.4,272.5,97.8
	c-30.4,14.3-54.4,31-71.4,49.7c-18.4,20.5-27.8,42.6-27.8,65.5c0,23,9.4,45.1,27.9,65.6c17,18.8,41,35.5,71.4,49.7
	c61,28.5,141.9,44.2,227.6,44.2c85.8,0,166.6-15.7,227.6-44.2c30.5-14.3,54.5-31,71.4-49.7c18.5-20.5,27.9-42.5,27.9-65.5
	C827,190,817.7,168,799.1,147.5L799.1,147.5z"/>
<path d="M793.3,152.7c-16.2-17.9-39.4-34-68.9-47.8c-60-28-139.6-43.5-224.2-43.5S336,76.9,276,104.9
	c-29.4,13.8-52.6,29.9-68.9,47.8c-17.2,19.1-26,39.4-26,60.3s8.8,41.3,25.9,60.3c16.3,18,39.5,34.1,68.9,47.9
	c60,28,139.6,43.5,224.2,43.5s164.3-15.4,224.2-43.5c29.5-13.8,52.6-29.9,68.9-47.9c17.2-19,25.9-39.3,25.9-60.3
	C819.1,192.1,810.5,171.7,793.3,152.7L793.3,152.7z"/>
<path class="st0" d="M451.2,6l-4.6,5.6c-3.5,4.2-14,16.3-19.1,20.7c-2.4,2.1-8.8,7.1-14.2,10.4L390,31.9l-49.4,24.2l-18.1-40.6
	c0,0-51.1,42.4-83,41c-2.9,0-15.4-3.1-15.4-3.1l5.3,76.7l27.4-3.7c1.2,8,2.5,20.3,2.7,27.8c0,2-0.4,30.1-6.9,53.2l-1.1,3.7l2.3,3
	c0.1,0.1,9.7,14.2,11.2,44.4c-7.3,4-26.1,12.9-56.4,16.8l-9.2,1.2l2.8,8.9c0.7,2.4,17.6,57.5,40.9,96l4.1,6.9l6.8-4.3
	c4.5-2.9,41.1-29,55.9-41c7.4,2.8,22.5,8.3,34.2,11.4c2.4,8.3,7.3,32.5,5.4,63.2l-0.4,6.3l6,1.8c0.5,0.1,12.5,3.6,35.4,5.3l9.1,0.6
	l2.8,0.2l2.3-1.6c1.5-1.1,34.1-24.3,43-30.9h0.9c4.1,0,14.8,1.2,39.5,9.4l8,2.7l2.1-8.2l21.6-84.5c7.5,5.9,18.2,13.9,28.9,20l3.4,2
	l3.6-1.7c0.9-0.4,17.6-8,36.7-23.9c-0.2,15-1.5,39.3-6.5,70.8l-1.4,8.5l47.7,2.2l1.5-0.8c11.3-6.2,25.9-13.2,29.3-13.6
	c0.1,0,16.3-2.2,40.5,6.9c1.3,0.4,9.1,2.7,20.4,2.7c1.9,0,61.2-2.1,61.2-2.1l-25.1-77.7v-0.1c-0.1-0.4-13-47.1-13-47.1
	s-38.2-35.1-43.2-56.6c-1.5-25.4,30.5-42.4,30.5-42.4l-4.2-20.8c2.7-1.1,6.3-2.3,10.5-2.7c3-0.3,7.5-0.4,13.3-0.4
	c10.2,0,21.1,0.5,21.2,0.5l8.4,0.4l-0.2-8.4l-1.2-54.1v-1l-0.3-1c-0.5-1.6-11.2-39.5-19.2-55.2l-3.7-7.5l-7.2,4.1
	c-0.2,0.1-19.8,11.3-51.2,20l-6.1,1.7l0.4,6.4c0.3,5-0.2,10.9-1.1,13.4c-2.2,6.7-77.1-17.8-77.1-17.8l-59.6,3.8l-50.3-34.4l-4.1,3
	l-18.5,13.5l-27-19L451.2,6z"/>
<path d="M740.5,268.9c0,0-38.2-33.4-44-59.6c0,0-3.1-27.1,29.5-47.4l-4.3-21.3c0,0,7.8-5.2,18.7-6.2c10.9-1.1,35.6,0,35.6,0
	l-1.2-54.1c0,0-10.9-38.6-18.6-53.8c0,0-20.2,11.6-53,20.8c0,0,0.6,15-2.9,20.4c0,0-3.2,4.7-23.1,0.2c-19.7-4.4-51.7-13.7-60.7-16.4
	c-0.1,0-0.2-0.1-0.3-0.1c0,0-49.1,2.7-52.3,3l1.7,13.4L543.4,67c0,0,6.2-16.4,6.2-16.7c0,0-40.9-27.4-42.2-28L484.2,39l-31.6-22.3
	c0,0-13.3,15.8-20,21.5c0,0-11.1,9.4-19,13.4l-22.1-10.8c0,0-3,1.2-8.3,3.5c0,0-23.3,9.7-46.5,23.1l-16.3-38.6
	c0,0-54.8,45.9-86.9,35.3l5.1,56c0,0,24.3-4.2,24.3-3.8c0,0,4.2,24,4.6,37.7c0,0-0.1,30.2-7.2,55.4c0,0,12.2,16.6,12.9,53.3
	c0,0-20.8,14.8-63.4,20.3c0,0,17,56.1,40.1,94.2c0,0,50.9-33.5,61.1-43.4c0,0,26.8,10.3,42,13.9c0,0,7.1,28,4.5,70.1
	c0,0,11.4,3.3,33.7,5l9.1,0.6c0,0,37.8-26.9,44-31.7c0,0,5.2-4.5,46.5,9.1l24.7-96.5c0,0,18.9,16.6,37.4,27.2
	c0,0,24.3-10.9,47.5-34.2c0,0,2.7,33.3-6.3,89.6c0,0,30.2,2.2,36.3,1.7c0,0,26-14.2,32.6-14.6c0,0,15.3-0.9,43.4,7.2
	c0,0,9.5,3,23.2,2.2l45.3-1.5c0,0-19.8-60.2-21.8-68.2C753,313.9,742.9,278.7,740.5,268.9 M271.7,506.7c-5.6,4.5-13.9,7.3-23.3,7.3
	c-9,0-16.9-2.7-22.5-7.4c-5-4.1-7.7-9.7-7.7-16.2c0-6.4,2.7-11.9,7.8-16.1c5.6-4.6,13.7-7.5,22.5-7.5c11.6,0,20.5,3.6,26,10.5
	l-11.2,3.9c-3.6-3.8-8.8-5.8-14.8-5.8c-11.5,0-19.6,6.4-19.6,14.9c0,4.6,2.2,8.5,6.5,11.3c3.3,2.2,8,3.6,13.1,3.6
	c9.1,0,16.3-3.8,19.3-9.3h-21.6v-8.6h33.5v2.6C279.7,496.8,277,502.4,271.7,506.7L271.7,506.7z M392.5,512.7l-5.1-9.5h-28.5
	l-5.1,9.5h-10.9l23.6-44.5h13.4l23.6,44.5H392.5z M373,476.3l-9.7,18.2h19.6L373,476.3z M525,512.7v-31.6h-0.2l-21.2,25.5
	l-21.2-25.5h-0.3v31.6h-10.8v-44.5h12.7l19.6,23.6l19.6-23.6h12.7v44.5H525L525,512.7z M611.4,512.7v-44.5h48.2v8.6h-37.4v9.1h26
	v8.6h-26v9.7h39.2v8.6H611.4z M755.2,475.8c-9.2,0-14.1,1.8-14.1,4.6c0,1.6,1.3,2.6,3.8,3.1c4.2,1.1,9.9,0.8,16.8,1.4
	c14,1.3,20.7,4.6,20.7,13.4c0,9.6-9.1,15.3-26,15.3c-11.1,0-20.4-2.5-28.9-8.4l5.9-7.3c7.6,4.6,15.2,6.9,23.5,6.9c9,0,14-2.6,14-6.2
	c0-3.9-5.8-3.9-15.2-4.3c-17.3-0.8-25.9-4.1-25.9-13.1c0-8.8,8.8-14.3,24.8-14.3c10.9,0,19.7,2.2,26.2,6.5l-6.1,7.1
	C768.5,477.4,762.1,475.8,755.2,475.8L755.2,475.8z"/>
<g>
	<path class="st0" d="M466.6,130.7c19.1-2.2,33.4-11,33.4-11C483.9,147.2,466.6,130.7,466.6,130.7 M538.3,95.8
		c0,0-9.6,7.7-15.7,10.3c-0.1,0-0.4,0-0.6-0.1c-1-1.4-5.4-7.8-7.6-12.5c-0.2-0.5-0.5-1-0.6-1.5c0,0-2-3.9-4.7-14.6
		c0,0-0.3,10.7,2.2,18.6c0,0,2.4,7.7,6.1,11.5c0.2,0.2,0.4,0.7-0.1,1c-1.5,1-5.3,3.2-11.4,6c-0.2,0.1-0.7,0.1-1-0.1
		c-2.2-2.1-12.2-12.5-18.5-32.1c0-0.1,0-0.1-0.1-0.2c0,0,0.9,12.8,3.4,19.7c2.4,6.4,6.8,12.3,9.2,14.5c0.2,0.2,0.6,0.5,0.3,0.8
		c-0.8,0.6-3.9,2.1-15.9,5.1c-0.2,0-0.6,0-0.7-0.1c-1.3-1.8-8.7-11.8-10.7-15.5c0,0-3-5.1-9.4-24.3c0,0,3.1,32.4,14.4,41.9
		c0,0-9.5,5-16.4,3.2c0,0-4.3,0-12-15.8c0,0-7.9-16.6-27.2-40c-0.1-0.1-0.1-0.3,0.1-0.3c1.5-0.6,8.2-3.2,11-6.1
		c0,0,12.2-17,19.4-24.8c0.1-0.1,0.2-0.3,0.5-0.1L477,59.8c0,0,0.4,0.5,0.8,0.1s13-11.3,13-11.3s0.2-0.3,0.6,0l13.6,7.8
		c0,0,0.4,0.2,0.6-0.1l9.8-11.2c0,0,0.3-0.3,0.6-0.1c0.3,0.3,17.1,14.3,17.1,14.3s0.2,0.4,0,0.7c-1.3,2.1-5.8,11.3,2.5,25.5
		C535.3,85,539.9,94.3,538.3,95.8"/>
</g>
<g>
	<path class="st1" d="M651.8,139.1c0,0-0.9,21.4-1.1,23.9c-0.2,2.6,0.1,10.9-1.5,16.2c0,0-16.3,44.1-24.2,49.3l-3.9-29.2L611,220
		c0,0,1.5-15.7,5.4-21.4c0,0,14.2-28.2,14.5-31.2c0,0,3.1-6.2,0.8-7.7c0,0-28.4-28.2-61-32.5l69-3c0,0,28.6,20.4,31.1,22.4
		C670.7,146.8,660.6,145.2,651.8,139.1 M554.5,237.1c-22-2.3-27.8-23.7-27.8-23.7c-1.1,7.7,3.8,14.1,3.8,14.1
		c-8.9-5.9-8.2-13.7-8.2-13.7c-1.1,10.1,6.6,20.9,6.6,20.9c-11.9-8.9-10.9-22-10.9-22c0.2-17.5,0.7-23.9,12.4-38.3
		c11.7-14.4,18.4-14.9,26.5-16.4c8.1-1.6,18.6,0.6,18.6,0.6c22.2,3,26.8,15.8,26.8,15.8c-7.6-5.1-17.2-7.3-17.2-7.3
		C617.2,200.8,581.5,239.9,554.5,237.1 M371.3,174.5c0,0,3.8-9.3,2.6-13.8c-0.1-0.3-0.2-0.5-0.3-0.7c0,0-24.6,24.8-57.3,3.3
		c0,0,6,3,11.8,3l0.2-34.7c0,0-5.1,1.7-15.1,11.8c0,0,9.3-22.3,46.7-34.7c0,0,19.4,13.2,29.5,17.4
		C389.5,126.2,387.2,162.5,371.3,174.5 M756.6,71.7c-3-11.1-10.1-23.3-10.1-23.3l-30.3,15.3c-10.9,32.6-29.6,25.4-43.2,24.6
		c-13.5-0.8-58.7-18.1-58.7-18.1c-0.9-0.3-1.1-0.4-1.1-0.4l-32.4,3.7c0,0,5.5,22.7,3.8,31.6c-1.7,8.9-8.2,11.1-28.3,14.7
		c-20.2,3.5-19,3.5-30.9,10.9c-11.8,7.4-32,31.1-32,31.1c-0.8,0.3-16.6,3.3-16.6,3.3c-16.7,3-23.6-0.7-23.6-0.7
		c-7.9-2.8-20.8-14.7-20.8-14.7c-0.8-0.5-0.6-1.1-0.6-1.1c3-6.3,6.4-16.6,6.4-16.6c0.9-3.7,0.8-5.2-7.5-18.9
		c-7.2-11.8-7.7-12.4-14.1-20.4c-7.9-10.3-34.8-26.1-34.8-26.1c-0.5-0.3-0.8-0.3-0.8-0.3l-12.7,11.2C353.6,80.5,326.7,94,326.7,94
		c-6-26.3-16.2-44.1-16.2-44.1c-42.8,33-63.8,27.9-63.8,27.9l2.7,31.4c29.9-1.9,50.4-17,50.4-17c-7.2,10.7-24.5,19.9-24.5,19.9
		c7.7,16.1,11.3,26.2,12.7,38.6c1.4,12.4-8.4,54.3-8.4,54.3c2.4,4.2,10,42.8,10,42.8c3.3,22.8-2,40.8-2,40.8l-0.1-15.2l-8.4-0.8
		c-2.8,5.2-9.5,10.2-9.5,10.2c-5.6,4-28.5,9.5-28.5,9.5c0.4,0.9,5.8,21.1,8.2,27.2c2.4,6.1,13.9,29.9,13.9,29.9
		c11.8-6.7,43.7-32.2,43.7-32.2c5.9-4.9,10.2-6.8,12.4-7.7c2.2-0.9,7-0.8,11.8-1.7c4.7-0.9,24.4-13.8,24.4-13.8
		c-1.7-1.3-13-28.4-15.4-35c-2.4-6.6-6.3-33.9-6.3-33.9c-1.3-0.9-20.4,2-20.4,2c17.9-16.9,44.9-13.3,44.9-13.3
		c21.1-0.5,26.8,40.5,26.8,40.5c-1,0.8-18.3,38.5-18.3,38.5c-8.6,15.1-4.2,30.3-4.2,30.3c1.3,2,7.3,33.6,7.3,33.6
		c1.7,3.6,4.1,45,4.1,45l23.7-0.1c42.8-27.3,39.8-25.3,45.6-26.8c5.8-1.5,30.1,6.1,30.1,6.1l21-49.9l-51.3-20.9l-0.5,16.2
		c-9.3-5.6-7.4-36.2-6.5-43.5c0.9-7.3,5.8-45.9,5.8-45.9c2.4-10.2-2.9-16.4-2.9-16.8c0-0.4-23.1-33.4-23.1-33.4
		c-28.9,27.8-64.3,18.8-64.3,18.8c48.6-1,70.7-40,70.7-40l17,7.4c0.1,0.9-5,19.6-5,19.6c15.4,6.8,22.9,26.2,22.8,25.9
		c-0.1-0.2-12.5-12-12.5-12l-1.3,8.8c3.6,2.6,5.2,5.6,5.2,5.6c5.4,5.4,3.1,18.2,3.1,18.2c0.5,0.5-7.7,58.8-7.7,58.8l53.3,22.8
		c2.9-11.1,1.5-27.1-0.8-35.9c-2.3-8.9-14.9-50.4-14.9-50.4c-6.1-21.6,4-49,4-49l9.1,1.5c-3.3,27.6-1.3,43.1-1.3,43.1
		c6.6,56.1,58.9,83.4,58.9,83.4c42.8-24.5,67-56.1,67-56.1c1.8,16.6-5.2,107.6-5.2,107.6c7.2,1.2,16.2,1.7,16.2,1.7
		c1.8-0.1,30.4-11.6,30.4-11.6c0.9-0.5,1.6-0.2,1.6-0.2l49.2,7.8c2.2,0.2,32.3,0,32.3,0c-11.1-47.9-12.6-78.5-12.6-78.5l-45.5-53.7
		v0.1c1.7,16.7,3.9,22.2,4.7,23.9c-17.9-27.3-8.6-50.5-4.7-62.2c3.8-11.8,19.6-39.5,19.6-39.5c-2-29.8-7.8-42.6-7.8-42.6
		c6.6,3.4,8.6,16,8.6,16c19.8-15.1,51.9-11.5,51.9-11.5C758.8,90.2,756.6,71.7,756.6,71.7"/>
</g>
</svg>
